<svg width="214" height="65" viewBox="0 0 214 65" fill="none" xmlns="http://www.w3.org/2000/svg">
<path d="M65 32.5C65 50.4493 50.4493 65 32.5 65C14.5507 65 0 50.4493 0 32.5C0 14.5507 14.5507 0 32.5 0C50.4493 0 65 14.5507 65 32.5Z" fill="#E4ECEA"/>
<path d="M75 32.5C75 46.5833 63.5833 58 49.5 58C35.4167 58 24 46.5833 24 32.5C24 18.4167 35.4167 7 49.5 7C63.5833 7 75 18.4167 75 32.5Z" fill="#C9DDE2"/>
<path d="M83.0227 20.7273H89.0909L95.5 36.3636H95.7727L102.182 20.7273H108.25V44H103.477V28.8523H103.284L97.2614 43.8864H94.0114L87.9886 28.7955H87.7955V44H83.0227V20.7273Z" fill="black"/>
<path d="M120.168 44.3409C118.372 44.3409 116.827 43.9773 115.531 43.25C114.243 42.5152 113.251 41.4773 112.554 40.1364C111.857 38.7879 111.509 37.1932 111.509 35.3523C111.509 33.5568 111.857 31.9811 112.554 30.625C113.251 29.2689 114.232 28.2121 115.497 27.4545C116.77 26.697 118.262 26.3182 119.974 26.3182C121.126 26.3182 122.198 26.5038 123.19 26.875C124.19 27.2386 125.062 27.7879 125.804 28.5227C126.554 29.2576 127.137 30.1818 127.554 31.2955C127.971 32.4015 128.179 33.697 128.179 35.1818V36.5114H113.44V33.5114H123.622C123.622 32.8144 123.471 32.197 123.168 31.6591C122.865 31.1212 122.444 30.7008 121.906 30.3977C121.376 30.0871 120.759 29.9318 120.054 29.9318C119.319 29.9318 118.668 30.1023 118.099 30.4432C117.539 30.7765 117.099 31.2273 116.781 31.7955C116.463 32.3561 116.3 32.9811 116.293 33.6705V36.5227C116.293 37.3864 116.452 38.1326 116.77 38.7614C117.096 39.3902 117.554 39.875 118.145 40.2159C118.736 40.5568 119.437 40.7273 120.247 40.7273C120.785 40.7273 121.277 40.6515 121.724 40.5C122.171 40.3485 122.554 40.1212 122.872 39.8182C123.19 39.5151 123.433 39.1439 123.599 38.7045L128.077 39C127.849 40.0758 127.384 41.0151 126.679 41.8182C125.982 42.6136 125.08 43.2349 123.974 43.6818C122.876 44.1212 121.607 44.3409 120.168 44.3409Z" fill="black"/>
<path d="M137.77 44.2841C136.444 44.2841 135.243 43.9432 134.168 43.2614C133.099 42.572 132.251 41.5606 131.622 40.2273C131.001 38.8864 130.69 37.2424 130.69 35.2955C130.69 33.2955 131.012 31.6326 131.656 30.3068C132.3 28.9735 133.156 27.9773 134.224 27.3182C135.3 26.6515 136.478 26.3182 137.759 26.3182C138.736 26.3182 139.55 26.4848 140.202 26.8182C140.861 27.1439 141.391 27.553 141.793 28.0455C142.202 28.5303 142.512 29.0076 142.724 29.4773H142.872V20.7273H147.702V44H142.929V41.2045H142.724C142.497 41.6894 142.175 42.1705 141.759 42.6477C141.349 43.1174 140.815 43.5076 140.156 43.8182C139.505 44.1288 138.709 44.2841 137.77 44.2841ZM139.304 40.4318C140.084 40.4318 140.743 40.2197 141.281 39.7955C141.827 39.3636 142.243 38.7614 142.531 37.9886C142.827 37.2159 142.974 36.3106 142.974 35.2727C142.974 34.2348 142.83 33.3333 142.543 32.5682C142.255 31.803 141.838 31.2121 141.293 30.7955C140.747 30.3788 140.084 30.1705 139.304 30.1705C138.509 30.1705 137.838 30.3864 137.293 30.8182C136.747 31.25 136.334 31.8485 136.054 32.6136C135.774 33.3788 135.634 34.2652 135.634 35.2727C135.634 36.2879 135.774 37.1856 136.054 37.9659C136.342 38.7386 136.755 39.3447 137.293 39.7841C137.838 40.2159 138.509 40.4318 139.304 40.4318Z" fill="black"/>
<path d="M167.955 26.5455L161.852 44H156.398L150.295 26.5455H155.409L159.034 39.0341H159.216L162.83 26.5455H167.955Z" fill="black"/>
<path d="M170.432 44V26.5455H175.273V44H170.432ZM172.864 24.2955C172.144 24.2955 171.527 24.0568 171.011 23.5795C170.504 23.0947 170.25 22.5152 170.25 21.8409C170.25 21.1742 170.504 20.6023 171.011 20.125C171.527 19.6402 172.144 19.3977 172.864 19.3977C173.583 19.3977 174.197 19.6402 174.705 20.125C175.22 20.6023 175.477 21.1742 175.477 21.8409C175.477 22.5152 175.22 23.0947 174.705 23.5795C174.197 24.0568 173.583 24.2955 172.864 24.2955Z" fill="black"/>
<path d="M193.673 31.5227L189.241 31.7955C189.166 31.4167 189.003 31.0758 188.753 30.7727C188.503 30.4621 188.173 30.2159 187.764 30.0341C187.363 29.8447 186.882 29.75 186.321 29.75C185.571 29.75 184.938 29.9091 184.423 30.2273C183.908 30.5379 183.651 30.9545 183.651 31.4773C183.651 31.8939 183.817 32.2462 184.151 32.5341C184.484 32.822 185.056 33.053 185.866 33.2273L189.026 33.8636C190.723 34.2121 191.988 34.7727 192.821 35.5455C193.654 36.3182 194.071 37.3333 194.071 38.5909C194.071 39.7348 193.734 40.7386 193.06 41.6023C192.393 42.4659 191.476 43.1402 190.31 43.625C189.151 44.1023 187.813 44.3409 186.298 44.3409C183.988 44.3409 182.147 43.8598 180.776 42.8977C179.412 41.928 178.613 40.6098 178.378 38.9432L183.139 38.6932C183.283 39.3977 183.632 39.9356 184.185 40.3068C184.738 40.6705 185.446 40.8523 186.31 40.8523C187.158 40.8523 187.84 40.6894 188.355 40.3636C188.878 40.0303 189.143 39.6023 189.151 39.0795C189.143 38.6402 188.957 38.2803 188.594 38C188.23 37.7121 187.67 37.4924 186.912 37.3409L183.889 36.7386C182.185 36.3977 180.916 35.8068 180.082 34.9659C179.257 34.125 178.844 33.053 178.844 31.75C178.844 30.6288 179.147 29.6629 179.753 28.8523C180.366 28.0417 181.226 27.4167 182.332 26.9773C183.446 26.5379 184.749 26.3182 186.241 26.3182C188.446 26.3182 190.181 26.7841 191.446 27.7159C192.719 28.6477 193.461 29.9167 193.673 31.5227Z" fill="black"/>
<path d="M205.074 44.3409C203.278 44.3409 201.733 43.9773 200.438 43.25C199.15 42.5152 198.157 41.4773 197.46 40.1364C196.763 38.7879 196.415 37.1932 196.415 35.3523C196.415 33.5568 196.763 31.9811 197.46 30.625C198.157 29.2689 199.138 28.2121 200.403 27.4545C201.676 26.697 203.169 26.3182 204.881 26.3182C206.032 26.3182 207.104 26.5038 208.097 26.875C209.097 27.2386 209.968 27.7879 210.71 28.5227C211.46 29.2576 212.044 30.1818 212.46 31.2955C212.877 32.4015 213.085 33.697 213.085 35.1818V36.5114H198.347V33.5114H208.528C208.528 32.8144 208.377 32.197 208.074 31.6591C207.771 31.1212 207.35 30.7008 206.812 30.3977C206.282 30.0871 205.665 29.9318 204.96 29.9318C204.225 29.9318 203.574 30.1023 203.006 30.4432C202.445 30.7765 202.006 31.2273 201.688 31.7955C201.369 32.3561 201.206 32.9811 201.199 33.6705V36.5227C201.199 37.3864 201.358 38.1326 201.676 38.7614C202.002 39.3902 202.46 39.875 203.051 40.2159C203.642 40.5568 204.343 40.7273 205.153 40.7273C205.691 40.7273 206.184 40.6515 206.631 40.5C207.078 40.3485 207.46 40.1212 207.778 39.8182C208.097 39.5151 208.339 39.1439 208.506 38.7045L212.983 39C212.756 40.0758 212.29 41.0151 211.585 41.8182C210.888 42.6136 209.987 43.2349 208.881 43.6818C207.782 44.1212 206.513 44.3409 205.074 44.3409Z" fill="black"/>
</svg>
