<svg xmlns="http://www.w3.org/2000/svg" viewBox="0 0 158.99 125.79"><defs><style>.cls-1,.cls-2{fill:none;stroke-linejoin:round;stroke-width:2px;}.cls-1{stroke:#ef6d5b;}.cls-2{stroke:#fff;}</style></defs><g id="Layer_2" data-name="Layer 2"><g id="Icons"><polygon class="cls-1" points="34.64 42.15 34.64 30.94 1 19.71 1 30.92 23.43 38.41 23.43 64.76 34.64 68.51 34.64 46.09 34.64 42.15"/><polygon class="cls-1" points="68.28 19.71 34.64 30.94 34.64 42.15 34.64 42.15 34.64 68.51 45.85 64.76 45.85 38.41 68.28 30.92 68.28 19.71"/><polygon class="cls-1" points="124.35 42.15 124.35 30.94 90.71 19.71 90.71 30.92 113.13 38.41 113.13 64.76 124.35 68.51 124.35 46.09 124.35 42.15"/><polygon class="cls-1" points="157.99 19.7 124.35 30.93 124.35 42.14 124.35 42.14 124.35 68.5 135.56 64.75 135.56 38.4 157.99 30.91 157.99 19.7"/><polygon class="cls-1" points="79.49 23.44 79.49 12.23 45.85 1 45.85 12.21 68.28 19.7 68.28 46.05 79.49 49.8 79.49 27.38 79.49 23.44"/><polygon class="cls-1" points="113.13 1 79.49 12.23 79.49 23.44 79.49 23.44 79.49 49.8 90.71 46.05 90.71 19.7 113.13 12.21 113.13 1"/><polygon class="cls-1" points="34.64 79.72 34.64 68.51 1 57.28 1 68.49 23.43 75.98 23.43 102.33 34.64 106.08 34.64 83.66 34.64 79.72"/><polygon class="cls-1" points="68.28 57.28 34.64 68.51 34.64 79.72 34.64 79.72 34.64 106.08 45.85 102.33 45.85 75.98 68.28 68.49 68.28 57.28"/><polygon class="cls-1" points="124.35 79.72 124.35 68.51 90.71 57.28 90.71 68.49 113.13 75.98 113.13 102.33 124.35 106.08 124.35 83.66 124.35 79.72"/><polygon class="cls-1" points="157.99 57.28 124.35 68.51 124.35 79.72 124.35 79.72 124.35 106.08 135.56 102.33 135.56 75.98 157.99 68.49 157.99 57.28"/><polygon class="cls-1" points="79.49 98.43 79.49 87.22 45.85 75.99 45.85 87.2 68.28 94.69 68.28 121.04 79.49 124.79 79.49 102.37 79.49 98.43"/><polygon class="cls-1" points="113.13 75.99 79.49 87.22 79.49 98.43 79.49 98.43 79.49 124.79 90.71 121.04 90.71 94.69 113.13 87.2 113.13 75.99"/><polygon class="cls-2" points="113.13 38.49 79.49 49.72 79.49 60.93 79.49 60.93 79.49 87.29 90.71 83.54 90.71 57.19 113.13 49.7 113.13 38.49"/><polygon class="cls-2" points="79.49 60.93 79.49 49.72 45.85 38.49 45.85 49.7 68.28 57.19 68.28 83.54 79.49 87.29 79.49 64.87 79.49 60.93"/></g></g></svg>