<svg xmlns="http://www.w3.org/2000/svg" viewBox="0 0 597.84 68.57"><defs><style>.cls-1{fill:#29292d;}</style></defs><g id="Layer_2" data-name="Layer 2"><g id="Text_-_logo-_menu" data-name="Text - logo- menu"><rect class="cls-1" x="50.97" y="3.42" width="13.31" height="62.58"/><polygon class="cls-1" points="3.21 3.42 0 3.42 0 66 13.31 66 13.31 41.36 38.11 41.36 38.11 28.06 13.31 28.06 13.31 16.73 40.79 16.73 40.79 3.42 13.31 3.42 3.21 3.42"/><polygon class="cls-1" points="104.06 38.29 87.01 3.42 72.2 3.42 96.66 53.43 104.06 68.57 111.47 53.43 135.93 3.42 121.12 3.42 104.06 38.29"/><path class="cls-1" d="M307.79,0l-7.4,15.14-24.46,50h14.81l4.62-9.46h24.86l4.63,9.46h14.81l-24.46-50Zm-5.92,42.39,5.92-12.11,5.92,12.11Z"/><polygon class="cls-1" points="389.06 38.31 360.67 13.41 347.37 1.74 347.37 19.44 347.37 65.15 360.67 65.15 360.67 31.11 389.06 56.01 402.36 67.68 402.36 49.98 402.36 3 389.06 3 389.06 38.31"/><polygon class="cls-1" points="529.27 38.31 500.89 13.41 487.58 1.74 487.58 19.44 487.58 65.15 500.89 65.15 500.89 31.11 529.27 56.01 542.58 67.68 542.58 49.98 542.58 3 529.27 3 529.27 38.31"/><polygon class="cls-1" points="146.68 3.42 143.47 3.42 143.47 66 146.68 66 156.78 66 185.32 66 185.32 52.69 156.78 52.69 156.78 41.36 183.36 41.36 183.36 28.06 156.78 28.06 156.78 16.73 185.32 16.73 185.32 3.42 156.78 3.42 146.68 3.42"/><path class="cls-1" d="M444.87,3c-18.45,0-33.41,14.21-33.41,31.74s15,31.75,33.41,31.75,33.4-14.22,33.4-31.75S463.31,3,444.87,3Zm-.22,51.35a19.61,19.61,0,1,1,19.61-19.61A19.61,19.61,0,0,1,444.65,54.36Z"/><path class="cls-1" d="M248.34,54.36c-11.4,0-20.64-8.78-20.64-19.61s9.24-19.61,20.64-19.61a21,21,0,0,1,15.27,6.46L272,13.18A34.11,34.11,0,0,0,247.53,3c-18.45,0-33.41,14.21-33.41,31.74s15,31.75,33.41,31.75a34.08,34.08,0,0,0,25-10.66l-8.42-8.42A21,21,0,0,1,248.34,54.36Z"/><path class="cls-1" d="M592.88,35.27c-6.49-6.73-23.44-9.66-25.18-12.75s-.24-7.84,7.52-7.84,11.25,5.15,11.25,5.15l8.79-7.29C587.89,2.16,576,1.61,568,3.43s-15.77,8.87-14.26,19.88,12.59,13.94,21.62,17,8.79,6.18,9,7.13.32,6.65-10,6.65a18.28,18.28,0,0,1-15.13-8l-9.82,7c6,9.33,13.86,13.5,25,13.5s18.3-4.7,21.23-9.53S599.38,42,592.88,35.27Z"/></g></g></svg>