<svg xmlns="http://www.w3.org/2000/svg" viewBox="0 0 118.41 129.71"><defs><style>.cls-1{fill:none;}.cls-1,.cls-2{stroke:#ef6d5b;stroke-miterlimit:10;stroke-width:2px;}.cls-2,.cls-3{fill:#ef6d5b;}</style></defs><g id="Layer_2" data-name="Layer 2"><g id="Icons"><circle class="cls-1" cx="56.31" cy="61.3" r="36.12"/><circle class="cls-1" cx="56.31" cy="61.3" r="19.06"/><path class="cls-2" d="M48.33,61.3a8,8,0,0,1,8-8,8.08,8.08,0,0,1,3.57.83l.11.06-3.21,6.72,6.95-2.58a8,8,0,1,1-15.4,2.95Z"/><circle class="cls-1" cx="56.38" cy="61.6" r="52.99"/><polyline class="cls-1" points="62.28 56.13 62.29 56.12 115.58 2.84"/><line class="cls-1" x1="103.71" y1="14.71" x2="103.71" y2="8.23"/><line class="cls-1" x1="107.82" y1="10.59" x2="107.82" y2="4.12"/><line class="cls-1" x1="111.94" y1="6.47" x2="111.94"/><line class="cls-1" x1="103.71" y1="14.71" x2="110.18" y2="14.71"/><line class="cls-1" x1="107.82" y1="10.59" x2="114.3" y2="10.59"/><line class="cls-1" x1="111.94" y1="6.47" x2="118.41" y2="6.47"/><line class="cls-1" x1="25.24" y1="104.48" x2="0.71" y2="129.01"/><line class="cls-1" x1="88.32" y1="104.48" x2="112.84" y2="129.01"/><line class="cls-1" x1="56.78" y1="115.73" x2="56.78" y2="127.34"/><line class="cls-1" x1="62.28" y1="56.13" x2="62.29" y2="56.12"/><polygon points="62.26 47.15 63.2 55.27 71.02 56.71 54.81 62.73 62.26 47.15"/><path class="cls-3" d="M61.66,50.71l.63,5.41,5,.92L56.78,60.93l4.88-10.22m1.19-7.12-3,6.26L55,60.07l-2.13,4.46,4.63-1.72L68,58.91l6.81-2.52-7.14-1.32-3.52-.65-.46-3.94-.8-6.89Z"/></g></g></svg>