<svg xmlns="http://www.w3.org/2000/svg" viewBox="0 0 357.85 72.39"><defs><style>.cls-1{fill:#29292d;}</style></defs><g id="Layer_2" data-name="Layer 2"><g id="Text_-_logo-_menu" data-name="Text - logo- menu"><path class="cls-1" d="M7.27,13.66c0-2.44,1.43-4,3.71-4s3.7,1.52,3.7,4V27.12h3.57c2.44,0,3.7,1.18,3.7,3.2s-1.26,3.2-3.7,3.2H14.68V68.43c0,2.44-1.43,4-3.7,4s-3.71-1.52-3.71-4V33.52H3.7c-2.44,0-3.7-1.18-3.7-3.2s1.26-3.2,3.7-3.2H7.27Z"/><path class="cls-1" d="M58.3,44c0-7.82-5.47-11-10.35-11s-10.34,3.2-10.34,11v24.4c0,2.44-1.43,4-3.71,4s-3.7-1.52-3.7-4V4.14C30.2,1.7,31.63.19,33.9.19s3.71,1.51,3.71,4v28.2l.16.17a15.32,15.32,0,0,1,12.37-5.89c6.9,0,15.57,4.37,15.57,17V68.43c0,2.44-1.43,4-3.7,4s-3.71-1.52-3.71-4Z"/><path class="cls-1" d="M79.7,52.36C79.7,60,84.58,66,92.91,66c9.84,0,12.36-6,15.14-6,1.35,0,2.69,1.17,2.69,3.28,0,3.61-9.17,9.17-17.92,9.17-14.3,0-20.53-11-20.53-22.89,0-12.11,7.57-22.88,20.11-22.88,12.2,0,19.27,11,19.27,21.79,0,2.61-.93,4-4.12,4Zm24.56-5.55c0-6.4-3.7-13.8-11.86-13.8-9.17-.34-12.45,7-12.7,13.8Z"/><path class="cls-1" d="M126.21,16.2c-.5-2.1-1.6-5.6-1.6-8.3A7.78,7.78,0,0,1,132.7,0c5.31,0,7.5,3.2,8.4,7.2l8.3,38.39h.2L161.3,8.3c2-6.2,4.8-8.3,9.1-8.3s7.1,2.1,9.1,8.3l11.7,37.29h.19l8.3-38.39c.9-4,3.1-7.2,8.4-7.2a7.78,7.78,0,0,1,8.1,7.9c0,2.7-1.1,6.2-1.6,8.3l-10.8,44.09c-1.9,7.8-3.6,12.1-11.4,12.1-6.19,0-9.59-3.1-11.49-8.9l-10.4-32.6h-.2l-10.4,32.6c-1.9,5.8-5.3,8.9-11.5,8.9-7.8,0-9.5-4.3-11.4-12.1Z"/><path class="cls-1" d="M244.34,63.79c0,5.7-3.4,8.6-8.1,8.6s-8.1-2.9-8.1-8.6V8.6c0-5.7,3.4-8.6,8.1-8.6s8.1,2.9,8.1,8.6V27.79h30.2V8.6c0-5.7,3.4-8.6,8.09-8.6s8.1,2.9,8.1,8.6V63.79c0,5.7-3.4,8.6-8.1,8.6s-8.09-2.9-8.09-8.6v-21h-30.2Z"/><path class="cls-1" d="M321,38.39,307,19.6c-5.1-7.1-6.7-9.1-6.7-12.4,0-4.3,3.8-7.2,8.6-7.2,4.4,0,6.5,3.1,8.2,5.5l12,17.09,12-17.09c1.7-2.4,3.8-5.5,8.2-5.5,4.79,0,8.59,2.9,8.59,7.2,0,3.3-1.6,5.3-6.7,12.4l-14,18.79v25.4c0,5.7-3.4,8.6-8.1,8.6s-8.1-2.9-8.1-8.6Z"/></g></g></svg>