<?xml version="1.0" encoding="utf-8"?>
<!-- Generator: Adobe Illustrator 25.4.1, SVG Export Plug-In . SVG Version: 6.00 Build 0)  -->
<svg version="1.1" id="Layer_1" xmlns="http://www.w3.org/2000/svg" xmlns:xlink="http://www.w3.org/1999/xlink" x="0px" y="0px"
	 viewBox="0 0 580 100" style="enable-background:new 0 0 580 100;" xml:space="preserve">
<style type="text/css">
	.st0{fill:#F9CFBD;}
</style>
<polygon class="st0" points="7,23.6 46.7,23.6 46.7,96.5 71.5,96.5 71.5,23.6 111.1,23.6 111.1,3.5 7,3.5 "/>
<polygon class="st0" points="573,22 573,3.5 491.3,3.5 491.3,3.6 478.9,3.6 478.9,96.5 491.3,96.5 503.7,96.5 573,96.5 573,78 
	503.7,78 503.7,58 538.5,58 538.5,39.5 503.7,39.5 503.7,22 "/>
<rect x="279.3" y="3.6" class="st0" width="24.8" height="92.9"/>
<path class="st0" d="M240,31.5c-1.5-23-16.4-28-42.8-28h-45.5v0.1h-11.4v92.9h24.8V57.9h24.1l31.8,38.5H250l-30.4-36.8
	C221,59.3,241.5,53.7,240,31.5L240,31.5z M165.2,19.5h32c9.8,0,17.3,1.3,17.5,8.1c0.2,6.9,1.5,12-17.5,12h-32V19.5L165.2,19.5z"/>
<path class="st0" d="M423.8,48.5c0,0,16.9-2,18-17.1C443,16.1,438.3,8,422.8,4.7c-5.2-1.1-21.2-1.1-21.2-1.1h-47.2v0.1h-11v92.9
	h69.2c8.2,0,21.3-1.3,28.5-7c7.2-5.8,8.9-14.7,7.4-25C446.9,54.3,437,49,423.8,48.5L423.8,48.5z M417.7,29.8
	c0.4,7.4-2.6,9.7-16.1,9.7h-33.4V22h33.4C408.5,22,417.3,22.5,417.7,29.8L417.7,29.8z M423.3,70.9c-0.9,6.4-8.9,7.1-15.3,7.1h-39.8
	V58h33.4c0,0,13.7-0.1,17.7,2C423.1,62.1,424.3,64.5,423.3,70.9z"/>
</svg>
