<svg xmlns="http://www.w3.org/2000/svg" viewBox="0 0 122.29 132.53"><defs><style>.cls-1{fill:none;stroke:#ef6d5b;stroke-miterlimit:10;stroke-width:2px;}</style></defs><g id="Layer_2" data-name="Layer 2"><g id="Icons"><circle class="cls-1" cx="61.15" cy="66.26" r="29.39"/><circle class="cls-1" cx="51.01" cy="51.41" r="6.32"/><path class="cls-1" d="M57.33,49.32a17.74,17.74,0,0,1,3.82-.42,17.38,17.38,0,1,1-14.4,7.66"/><path class="cls-1" d="M1.35,66.26s26.77-29.38,59.8-29.38,59.79,29.38,59.79,29.38S94.17,95.65,61.15,95.65,1.35,66.26,1.35,66.26Z"/><line class="cls-1" x1="61.15" y1="29.22" x2="61.15"/><line class="cls-1" x1="29.63" y1="34.75" x2="8.97" y2="14.09"/><line class="cls-1" x1="93.67" y1="34.75" x2="114.33" y2="14.09"/><line class="cls-1" x1="61.15" y1="103.3" x2="61.15" y2="132.53"/><line class="cls-1" x1="92.66" y1="97.78" x2="113.32" y2="118.44"/><line class="cls-1" x1="28.62" y1="97.78" x2="7.96" y2="118.44"/></g></g></svg>